<svg xmlns="http://www.w3.org/2000/svg">
  <symbol id="add-rounded" viewBox="0 0 24 24">
    <path fill="none" d="M8 12H12M16 12H12M12 12V8M12 12V16" stroke="currentColor" stroke-width="1.5" stroke-linecap="round" stroke-linejoin="round"/>  
    <path class="icon-bg" fill="none" d="M12 22C17.5228 22 22 17.5228 22 12C22 6.47715 17.5228 2 12 2C6.47715 2 2 6.47715 2 12C2 17.5228 6.47715 22 12 22Z" stroke="currentColor" stroke-width="1.5" stroke-linecap="round" stroke-linejoin="round"/>
  </symbol>
  <symbol id="cancel" viewBox="0 0 24 24">
    <path d="M6.75827 17.2426L12.0009 12M17.2435 6.75736L12.0009 12M12.0009 12L6.75827 6.75736M12.0009 12L17.2435 17.2426" stroke="currentColor" stroke-width="1.5" stroke-linecap="round" stroke-linejoin="round"/>
  </symbol>
  <symbol id="loading" viewBox="0 0 24 24">
    <circle fill="none" cx="12" cy="12" r="10" stroke="currentColor" stroke-width="1.5"/>
    <path fill="none" d="M16.5829 9.66667C15.8095 8.09697 14.043 7 11.9876 7C9.38854 7 7.25148 8.75408 7 11" stroke="currentColor" stroke-width="1.5" stroke-linecap="round" stroke-linejoin="round"/>
    <path fill="none" d="M14.4939 9.72222H16.4001C16.7315 9.72222 17.0001 9.45359 17.0001 9.12222V7.5" stroke="currentColor" stroke-width="1.5" stroke-linecap="round" stroke-linejoin="round"/>
    <path fill="none" d="M7.41707 13.6667C8.19054 15.6288 9.95698 17 12.0124 17C14.6115 17 16.7485 14.8074 17 12" stroke="currentColor" stroke-width="1.5" stroke-linecap="round" stroke-linejoin="round"/>
    <path fill="none" d="M9.5061 13.6222H7.59992C7.26855 13.6222 6.99992 13.8909 6.99992 14.2222V16.4" stroke="currentColor" stroke-width="1.5" stroke-linecap="round" stroke-linejoin="round"/>
  </symbol>
</svg>