<svg xmlns="http://www.w3.org/2000/svg">
  <symbol id="add-rounded" viewBox="0 0 24 24">
    <path fill="none" d="M8 12H12M16 12H12M12 12V8M12 12V16" stroke="currentColor" stroke-width="1.5" stroke-linecap="round" stroke-linejoin="round"/>  
    <path class="icon-bg" fill="none" d="M12 22C17.5228 22 22 17.5228 22 12C22 6.47715 17.5228 2 12 2C6.47715 2 2 6.47715 2 12C2 17.5228 6.47715 22 12 22Z" stroke="currentColor" stroke-width="1.5" stroke-linecap="round" stroke-linejoin="round"/>
  </symbol>
  <symbol id="cancel" viewBox="0 0 24 24">
    <path d="M6.75827 17.2426L12.0009 12M17.2435 6.75736L12.0009 12M12.0009 12L6.75827 6.75736M12.0009 12L17.2435 17.2426" stroke="currentColor" stroke-width="1.5" stroke-linecap="round" stroke-linejoin="round"/>
  </symbol>
  <symbol id="loading" viewBox="0 0 24 24">
    <circle fill="none" cx="12" cy="12" r="10" stroke="currentColor" stroke-width="1.5"/>
    <path fill="none" d="M16.5829 9.66667C15.8095 8.09697 14.043 7 11.9876 7C9.38854 7 7.25148 8.75408 7 11" stroke="currentColor" stroke-width="1.5" stroke-linecap="round" stroke-linejoin="round"/>
    <path fill="none" d="M14.4939 9.72222H16.4001C16.7315 9.72222 17.0001 9.45359 17.0001 9.12222V7.5" stroke="currentColor" stroke-width="1.5" stroke-linecap="round" stroke-linejoin="round"/>
    <path fill="none" d="M7.41707 13.6667C8.19054 15.6288 9.95698 17 12.0124 17C14.6115 17 16.7485 14.8074 17 12" stroke="currentColor" stroke-width="1.5" stroke-linecap="round" stroke-linejoin="round"/>
    <path fill="none" d="M9.5061 13.6222H7.59992C7.26855 13.6222 6.99992 13.8909 6.99992 14.2222V16.4" stroke="currentColor" stroke-width="1.5" stroke-linecap="round" stroke-linejoin="round"/>
  </symbol>
  <symbol id="sign-in" viewBox="0 0 24 24">
    <path fill="none" d="M19 12H12M12 12L15 15M12 12L15 9" stroke="currentColor" stroke-width="1.5" stroke-linecap="round" stroke-linejoin="round"/>
    <path fill="none" d="M19 6V5C19 3.89543 18.1046 3 17 3H7C5.89543 3 5 3.89543 5 5V19C5 20.1046 5.89543 21 7 21H17C18.1046 21 19 20.1046 19 19V18" stroke="currentColor" stroke-width="1.5" stroke-linecap="round" stroke-linejoin="round"/>
  </symbol>
  <symbol id="sign-up" viewBox="0 0 24 24">
    <path fill="none" d="M14.5,15.5v-7 M14.5,8.5l-3,3 M14.5,8.5l3,3" stroke="currentColor" stroke-wdth="1.5" stroke-linecap="round" stroke-linejoin="round" />
    <path fill="none" d="M19,6V5c0-1.1-0.9-2-2-2H7C5.9,3,5,3.9,5,5v14c0,1.1,0.9,2,2,2h10c1.1,0,2-0.9,2-2v-1" stroke="currentColor" stroke-wdth="1.5" stroke-linecap="round" stroke-linejoin="round"  />
  </symbol>
  <symbol id="sign-out" viewBox="0 0 24 24">
    <path fill="none" d="M12 12H19M19 12L16 15M19 12L16 9" stroke="currentColor" stroke-width="1.5" stroke-linecap="round" stroke-linejoin="round"/>
    <path fill="none" d="M19 6V5C19 3.89543 18.1046 3 17 3H7C5.89543 3 5 3.89543 5 5V19C5 20.1046 5.89543 21 7 21H17C18.1046 21 19 20.1046 19 19V18" stroke="currentColor" stroke-width="2" stroke-linecap="round" stroke-linejoin="round"/>
  </symbol>
  <symbol id="cancel-sign-in" viewBox="0 0 24 24">
    <path fill="none" d="M17.8566 9.2C17.1306 8.45946 16.119 8 15 8C12.7909 8 11 9.79086 11 12C11 13.0902 11.4361 14.0785 12.1434 14.8M17.8566 9.2C18.5639 9.9215 19 10.9098 19 12C19 14.2091 17.2091 16 15 16C13.881 16 12.8694 15.5405 12.1434 14.8M17.8566 9.2L12.1434 14.8" stroke="currentColor" stroke-width="1.5" stroke-linecap="round" stroke-linejoin="round"/>
    <path fill="none" d="M19 6V5C19 3.89543 18.1046 3 17 3H7C5.89543 3 5 3.89543 5 5V19C5 20.1046 5.89543 21 7 21H17C18.1046 21 19 20.1046 19 19V18" stroke="currentColor" stroke-width="1.5" stroke-linecap="round" stroke-linejoin="round"/>
  </symbol>
</svg>